<?xml version="1.0" standalone="no"?>
<!DOCTYPE svg PUBLIC "-//W3C//DTD SVG 20010904//EN"
 "http://www.w3.org/TR/2001/REC-SVG-20010904/DTD/svg10.dtd">
<svg version="1.0" xmlns="http://www.w3.org/2000/svg"
 width="316.000000pt" height="316.000000pt" viewBox="0 0 316.000000 316.000000"
 preserveAspectRatio="xMidYMid meet">
<metadata>
Created by potrace 1.14, written by Peter Selinger 2001-2017
</metadata>
<g transform="translate(0.000000,316.000000) scale(0.100000,-0.100000)"
fill="#000000" stroke="none">
<path d="M515 3150 c-64 -13 -170 -56 -227 -93 -78 -49 -179 -164 -221 -249
-69 -142 -68 -114 -65 -1268 l3 -1035 29 -75 c15 -41 44 -101 62 -132 49 -80
167 -187 256 -231 142 -69 113 -68 1268 -65 l1035 3 75 29 c41 15 101 44 132
62 80 49 187 167 231 256 69 142 68 113 65 1268 l-3 1035 -29 75 c-15 41 -44
101 -62 132 -49 80 -167 187 -256 231 -140 69 -112 67 -1240 66 -557 -1 -1031
-5 -1053 -9z m1793 -565 c47 -20 79 -50 104 -99 20 -39 20 -56 19 -830 -2
-891 3 -829 -79 -893 -51 -39 -116 -51 -175 -33 -56 16 -122 83 -136 137 -8
29 -11 190 -9 528 2 267 1 485 -2 485 -3 0 -124 -120 -270 -266 -170 -170
-279 -273 -305 -285 -53 -25 -135 -25 -183 0 -20 11 -59 42 -87 70 -27 28 -53
51 -57 51 -4 0 -8 -131 -8 -290 0 -271 -1 -294 -20 -330 -73 -143 -282 -142
-354 2 l-26 52 0 550 c0 348 4 565 10 588 14 49 52 94 104 120 53 28 146 30
196 4 19 -10 103 -85 185 -167 l150 -149 360 361 c384 385 413 409 503 409 23
0 59 -7 80 -15z"/>
</g>
</svg>
